<svg width="80" height="71" viewBox="0 0 80 71" fill="none" xmlns="http://www.w3.org/2000/svg">
<path d="M78.0645 14.4657C76.8232 11.6349 75.0335 9.06969 72.7954 6.91363C70.5556 4.75114 67.9148 3.03265 65.0167 1.85159C62.0115 0.62204 58.7883 -0.00731293 55.5341 6.41089e-05C50.9688 6.41089e-05 46.5146 1.23137 42.6438 3.55718C41.7177 4.11355 40.838 4.72464 40.0046 5.39046C39.1712 4.72464 38.2914 4.11355 37.3654 3.55718C33.4946 1.23137 29.0404 6.41089e-05 24.475 6.41089e-05C21.1876 6.41089e-05 18.0021 0.620279 14.9925 1.85159C12.0847 3.03729 9.46405 4.74288 7.21379 6.91363C4.97276 9.06726 3.18257 11.6331 1.94467 14.4657C0.657483 17.4117 0 20.5401 0 23.7598C0 26.797 0.629702 29.9619 1.87985 33.1815C2.92626 35.8722 4.42643 38.6631 6.34332 41.4815C9.3807 45.9415 13.5571 50.5932 18.7429 55.3086C27.3365 63.1251 35.8467 68.5247 36.2079 68.7436L38.4025 70.1299C39.3749 70.741 40.625 70.741 41.5974 70.1299L43.7921 68.7436C44.1532 68.5155 52.6542 63.1251 61.257 55.3086C66.4428 50.5932 70.6192 45.9415 73.6566 41.4815C75.5735 38.6631 77.0829 35.8722 78.12 33.1815C79.3702 29.9619 79.9999 26.797 79.9999 23.7598C80.0092 20.5401 79.3517 17.4117 78.0645 14.4657Z" fill="white"/>
</svg>
