<svg width="60" height="60" viewBox="0 0 60 60" fill="none" xmlns="http://www.w3.org/2000/svg">
<path d="M38.21 20.47C36.5033 20.47 34.9167 21.2633 33.4433 22.8533C32.4067 23.8933 31.7767 25.1133 31.5567 26.5233C32.2467 26.0867 32.8467 25.87 33.36 25.87C33.89 25.87 34.3267 26.1033 34.67 26.5767C35.3333 27.5033 35.2967 28.6733 34.56 30.08C32.93 33.1933 31.74 34.7467 31.0067 34.7467C30.4867 34.7467 29.82 33.0067 29 29.5233C28.8118 28.7908 28.6639 28.0486 28.5567 27.3C28.4308 26.4629 28.283 25.6293 28.1133 24.8C27.9633 24.0967 27.7433 23.3733 27.4467 22.6367C27.15 21.9 26.78 21.3567 26.3367 21.0267C26.0211 20.7948 25.6382 20.673 25.2467 20.68L24.67 20.75C23.7067 20.9733 22.5933 21.5667 21.3367 22.53C20.219 23.3619 19.1771 24.291 18.2233 25.3067L17.11 26.64L18.1133 27.97L18.6667 27.5267C18.8867 27.3767 19.2967 27.19 19.89 26.97L20.5267 26.8267C20.7567 26.8267 20.9133 26.91 21.0033 27.08C21.2233 27.3767 21.9067 29.47 23.0533 33.36C24.2067 37.25 24.9267 39.49 25.22 40.0833C25.74 41.12 26.4433 41.9167 27.33 42.4733C27.7633 42.74 28.2333 42.8767 28.7533 42.8767C29.3033 42.8767 29.9067 42.72 30.5533 42.4133C32.5567 41.0833 34.85 38.86 37.4433 35.7467C40.0367 32.6367 41.6267 29.34 42.22 25.86C42.74 22.8233 41.8533 21.08 39.5567 20.6367C39.1165 20.5251 38.6641 20.4691 38.21 20.47ZM30 60C13.4567 60 0 46.5433 0 30C0 13.4567 13.4567 0 30 0C46.5433 0 60 13.4567 60 30C60 46.5433 46.5433 60 30 60ZM30 6.66667C17.1367 6.66667 6.66667 17.1367 6.66667 30C6.66667 42.8633 17.1367 53.3333 30 53.3333C42.8633 53.3333 53.3333 42.8633 53.3333 30C53.3333 17.1367 42.8633 6.66667 30 6.66667Z" fill="white"/>
</svg>
