<svg width="19" height="19" viewBox="0 0 19 19" fill="none" xmlns="http://www.w3.org/2000/svg">
<path d="M2.188 4.36327C3.3964 4.36327 4.376 3.38652 4.376 2.18163C4.376 0.97675 3.3964 0 2.188 0C0.979601 0 0 0.97675 0 2.18163C0 3.38652 0.979601 4.36327 2.188 4.36327Z" fill="#005EB5"/>
<path d="M6.44205 6.01629V18.12H10.211V12.1344C10.211 10.555 10.509 9.02551 12.473 9.02551C14.41 9.02551 14.434 10.8312 14.434 12.2341V18.121H18.205V11.4833C18.205 8.22285 17.501 5.71716 13.679 5.71716C11.844 5.71716 10.614 6.72123 10.111 7.67146H10.06V6.01629H6.44205ZM0.300049 6.01629H4.07505V18.12H0.300049V6.01629Z" fill="#005EB5"/>
</svg>
