<svg width="21" height="16" viewBox="0 0 21 16" fill="none" xmlns="http://www.w3.org/2000/svg">
<path d="M0 0V1.5C0 5.65 2.21 9.28 5.5 11.3V16H20.5V14C20.5 11.34 15.17 10 12.5 10H12.25C7.5 10 3.5 6 3.5 1.5V0M12.5 0C11.4391 0 10.4217 0.421427 9.67157 1.17157C8.92143 1.92172 8.5 2.93913 8.5 4C8.5 5.06087 8.92143 6.07828 9.67157 6.82843C10.4217 7.57857 11.4391 8 12.5 8C13.5609 8 14.5783 7.57857 15.3284 6.82843C16.0786 6.07828 16.5 5.06087 16.5 4C16.5 2.93913 16.0786 1.92172 15.3284 1.17157C14.5783 0.421427 13.5609 0 12.5 0Z" fill="#005EB5"/>
</svg>
