<svg width="12" height="16" viewBox="0 0 12 16" fill="none" xmlns="http://www.w3.org/2000/svg">
<path fill-rule="evenodd" clip-rule="evenodd" d="M10.5 5.98254V14.4578H1.5V1.49564H6V4.23763C6 5.20082 6.784 5.98254 7.75 5.98254H10.5ZM10.379 4.48691L7.5 1.61628V4.23763C7.5 4.37523 7.612 4.48691 7.75 4.48691H10.379ZM0 0.99709C0 0.732646 0.105357 0.479032 0.292893 0.292041C0.48043 0.10505 0.734784 0 1 0L7.586 0C7.8512 5.64726e-05 8.10551 0.105144 8.293 0.292147L11.707 3.69621C11.8945 3.88316 11.9999 4.13673 12 4.40116V14.9564C12 15.2208 11.8946 15.4744 11.7071 15.6614C11.5196 15.8484 11.2652 15.9534 11 15.9534H1C0.734784 15.9534 0.48043 15.8484 0.292893 15.6614C0.105357 15.4744 0 15.2208 0 14.9564V0.99709ZM3.75 7.97672C3.55109 7.97672 3.36032 8.05551 3.21967 8.19575C3.07902 8.336 3 8.52621 3 8.72454C3 8.92287 3.07902 9.11308 3.21967 9.25333C3.36032 9.39357 3.55109 9.47236 3.75 9.47236H8.25C8.44891 9.47236 8.63968 9.39357 8.78033 9.25333C8.92098 9.11308 9 8.92287 9 8.72454C9 8.52621 8.92098 8.336 8.78033 8.19575C8.63968 8.05551 8.44891 7.97672 8.25 7.97672H3.75ZM3 11.2173C3 11.0189 3.07902 10.8287 3.21967 10.6885C3.36032 10.5482 3.55109 10.4694 3.75 10.4694H6.25C6.44891 10.4694 6.63968 10.5482 6.78033 10.6885C6.92098 10.8287 7 11.0189 7 11.2173C7 11.4156 6.92098 11.6058 6.78033 11.7461C6.63968 11.8863 6.44891 11.9651 6.25 11.9651H3.75C3.55109 11.9651 3.36032 11.8863 3.21967 11.7461C3.07902 11.6058 3 11.4156 3 11.2173Z" fill="#005EB5"/>
</svg>
