<svg width="28" height="29" viewBox="0 0 28 29" fill="none" xmlns="http://www.w3.org/2000/svg">
<path d="M8.40697 19.9009C8.40697 19.7776 8.45612 19.6593 8.54361 19.572C8.6311 19.4848 8.74975 19.4358 8.87348 19.4358H16.3003C16.4241 19.4358 16.5427 19.4848 16.6302 19.572C16.7177 19.6593 16.7668 19.7776 16.7668 19.9009C16.7668 20.0243 16.7177 20.1426 16.6302 20.2298C16.5427 20.3171 16.4241 20.3661 16.3003 20.3661H8.87348C8.74975 20.3661 8.6311 20.3171 8.54361 20.2298C8.45612 20.1426 8.40697 20.0243 8.40697 19.9009ZM8.84549 16.6635C8.72176 16.6635 8.60311 16.7125 8.51562 16.7997C8.42813 16.8869 8.37898 17.0052 8.37898 17.1286C8.37898 17.252 8.42813 17.3703 8.51562 17.4575C8.60311 17.5448 8.72176 17.5938 8.84549 17.5938H20.9934C21.1172 17.5938 21.2358 17.5448 21.3233 17.4575C21.4108 17.3703 21.46 17.252 21.46 17.1286C21.46 17.0052 21.4108 16.8869 21.3233 16.7997C21.2358 16.7125 21.1172 16.6635 20.9934 16.6635H8.84549ZM8.37898 14.3191C8.37898 14.1957 8.42813 14.0774 8.51562 13.9902C8.60311 13.9029 8.72176 13.8539 8.84549 13.8539H20.9934C21.1172 13.8539 21.2358 13.9029 21.3233 13.9902C21.4108 14.0774 21.46 14.1957 21.46 14.3191C21.46 14.4425 21.4108 14.5608 21.3233 14.648C21.2358 14.7352 21.1172 14.7842 20.9934 14.7842H8.84549C8.72176 14.7842 8.60311 14.7352 8.51562 14.648C8.42813 14.5608 8.37898 14.4425 8.37898 14.3191ZM8.78951 11.1002C8.66578 11.1002 8.54712 11.1492 8.45964 11.2365C8.37215 11.3237 8.323 11.442 8.323 11.5654C8.323 11.6887 8.37215 11.8071 8.45964 11.8943C8.54712 11.9815 8.66578 12.0305 8.78951 12.0305H20.9934C21.1172 12.0305 21.2358 11.9815 21.3233 11.8943C21.4108 11.8071 21.46 11.6887 21.46 11.5654C21.46 11.442 21.4108 11.3237 21.3233 11.2365C21.2358 11.1492 21.1172 11.1002 20.9934 11.1002H8.78951Z" fill="black"/>
<path d="M3.24263 0.987671C1.55666 0.987671 0.333466 2.35987 0.0274347 3.90512L0.0265016 3.91442L0.0246356 3.92279C-0.0450497 4.30535 0.0343783 4.7 0.246695 5.02614C0.457558 5.34616 0.842896 5.63921 1.35699 5.63921H4.66362L4.61884 25.2389V25.2408C4.62007 26.2125 5.00777 27.1441 5.69691 27.8313C6.38604 28.5184 7.32036 28.905 8.29495 28.9062H22.9154C22.99 28.9062 23.0647 28.9025 23.1365 28.895C26.71 28.8448 27.5591 27.441 27.9201 26.0502C27.9676 25.8435 27.9675 25.6289 27.9198 25.4223C27.8721 25.2158 27.7782 25.0227 27.6449 24.8575C27.4744 24.6533 27.2602 24.4898 27.018 24.3791C26.7758 24.2683 26.5118 24.2131 26.2454 24.2175H25.1453V5.12754C25.1453 4.03205 24.7089 2.98142 23.932 2.20679C23.1551 1.43216 22.1014 0.996974 21.0027 0.996974H8.02437V0.987671H3.24263ZM6.52967 5.63921H6.53153V4.7089C6.53141 4.06282 6.37997 3.4257 6.08928 2.84829H6.15832V2.85759H21.0027C21.6065 2.85759 22.1855 3.09674 22.6125 3.52244C23.0394 3.94814 23.2793 4.52551 23.2793 5.12754V24.2175H12.5029C12.1289 24.201 11.7604 24.3117 11.4578 24.5314C11.1552 24.7512 10.9365 25.0669 10.8374 25.4269C10.7247 25.8362 10.4973 26.205 10.1818 26.4901C9.86633 26.7751 9.47591 26.9646 9.05629 27.0363V27.0456H8.29495C7.81543 27.0444 7.35588 26.8539 7.01673 26.5159C6.67757 26.1779 6.48636 25.7198 6.48488 25.2417L6.52967 5.64386V5.63921Z" fill="black"/>
</svg>
